<?xml version="1.0" encoding="utf-8"?>
<!-- Generator: Adobe Illustrator 16.0.3, SVG Export Plug-In . SVG Version: 6.00 Build 0)  -->
<!DOCTYPE svg PUBLIC "-//W3C//DTD SVG 1.1//EN" "http://www.w3.org/Graphics/SVG/1.1/DTD/svg11.dtd">
<svg version="1.1" id="Layer_1" xmlns="http://www.w3.org/2000/svg" xmlns:xlink="http://www.w3.org/1999/xlink" x="0px" y="0px"
	 width="283.46px" height="283.46px" viewBox="0 0 283.46 283.46" enable-background="new 0 0 283.46 283.46" xml:space="preserve">
<g id="Layer_3">
	<g>
		<path fill="#010101" d="M151.41,54.396c0,5.846-7.273,5.498-7.273,5.498h-7.275V49.332h7.275
			C151.623,49.28,151.41,54.396,151.41,54.396 M136.86,33.221h5.544c5.758,0.306,5.538,4.591,5.538,4.591
			c0,5.325-6.364,5.412-6.364,5.412h-4.718V33.221z M150.063,45.302c0,0,4.979-2.122,4.937-7.751c0,0,0.758-9.221-11.463-10.346
			h-13.56v38.664h15.542c0,0,12.986,0.062,12.986-10.908C158.505,54.96,158.812,47.51,150.063,45.302 M114.973,19.627h57.086v53.795
			h-57.086V19.627z M85.578,54.394c0,5.847-7.274,5.5-7.274,5.5h-7.275V49.33h7.275C85.791,49.279,85.578,54.394,85.578,54.394
			 M71.028,33.22h5.544c5.756,0.307,5.538,4.59,5.538,4.59c0,5.326-6.364,5.412-6.364,5.412h-4.718V33.22z M84.232,45.3
			c0,0,4.98-2.121,4.936-7.749c0,0,0.756-9.223-11.463-10.348h-13.56v38.665h15.544c0,0,12.986,0.063,12.986-10.908
			C92.675,54.959,92.979,47.508,84.232,45.3 M49.142,19.626h57.086v53.795H49.142V19.626z M226.248,29.974v7.145
			c0,0-6.974-4.286-14.679-4.372c0,0-14.376-0.286-15.022,13.779c0,0-0.521,12.931,14.852,13.668c0,0,6.447,0.777,15.196-4.801
			v7.397c0,0-11.735,6.973-25.329,1.602c0,0-11.428-4.172-11.863-17.866c0,0-0.475-14.083,14.768-18.758
			c0,0,4.068-1.56,11.384-0.866c0.001,0,4.37,0.433,10.696,3.072 M180.808,73.423h57.086V19.627h-57.086V73.423z"/>
	</g>
	<g>
		<path fill="#010101" d="M67.717,115.596v15.592h-5.306V92.475h12.506c4.909,0,8.663,1.012,11.262,3.034
			c2.635,1.985,3.953,4.836,3.953,8.553c0,2.6-0.704,4.802-2.111,6.606c-1.407,1.806-3.411,3.123-6.01,3.953
			c3.609,5.378,7.093,10.9,10.449,16.567h-6.227c-1.517-2.671-3.068-5.287-4.656-7.852c-1.553-2.599-3.177-5.197-4.874-7.796
			c-0.577,0.042-1.19,0.062-1.841,0.062L67.717,115.596z M67.717,111.265h6.767c3.43,0,5.992-0.596,7.689-1.788
			c1.696-1.19,2.545-2.996,2.545-5.415c0-4.836-3.394-7.253-10.18-7.253h-6.821V111.265z"/>
		<path fill="#010101" d="M127.11,131.186c-0.649-1.769-1.299-3.52-1.949-5.252c-0.613-1.732-1.245-3.465-1.895-5.197h-18.191
			c-1.3,3.429-2.581,6.912-3.845,10.449h-5.576c2.562-6.786,5.143-13.408,7.741-19.869c2.636-6.462,5.307-12.743,8.014-18.844h5.631
			c2.815,6.461,5.522,12.923,8.121,19.385c2.635,6.46,5.197,12.902,7.688,19.328H127.11z M106.806,116.188h14.727
			c-1.227-3.141-2.454-6.245-3.681-9.313c-1.228-3.068-2.455-6.117-3.683-9.15c-1.263,3.068-2.508,6.137-3.734,9.205
			C109.206,109.997,107.997,113.084,106.806,116.188L106.806,116.188z"/>
		<path fill="#010101" d="M137.085,92.556h13.481c3.971,0,7.383,0.758,10.232,2.274c2.889,1.481,5.09,3.647,6.604,6.499
			c1.554,2.853,2.329,6.335,2.329,10.449c0,4.114-0.775,7.634-2.329,10.558c-1.516,2.888-3.717,5.108-6.604,6.66
			c-2.852,1.516-6.279,2.272-10.286,2.272h-13.428L137.085,92.556L137.085,92.556z M150.134,126.722
			c4.476,0,7.922-1.264,10.341-3.79c2.454-2.527,3.683-6.245,3.683-11.153c0-4.838-1.209-8.483-3.628-10.937
			c-2.383-2.491-5.829-3.736-10.342-3.736h-7.742v29.616H150.134z"/>
		<path fill="#010101" d="M175.785,92.556h5.359v38.713h-5.359V92.556z"/>
		<path fill="#010101" d="M206,91.728c2.814,0,5.358,0.469,7.633,1.408c2.312,0.939,4.277,2.292,5.902,4.06
			c1.66,1.769,2.924,3.897,3.789,6.389c0.866,2.455,1.301,5.216,1.301,8.284c0,3.068-0.451,5.849-1.354,8.339
			c-0.866,2.454-2.112,4.564-3.735,6.334c-1.625,1.769-3.592,3.141-5.902,4.114c-2.273,0.938-4.817,1.408-7.633,1.408
			c-2.816,0-5.379-0.47-7.688-1.408c-2.274-0.974-4.224-2.346-5.849-4.114c-1.623-1.77-2.887-3.88-3.791-6.334
			c-0.865-2.49-1.299-5.271-1.299-8.339c0-3.068,0.434-5.829,1.299-8.284c0.867-2.49,2.113-4.62,3.736-6.389
			c1.66-1.768,3.629-3.121,5.902-4.06C200.621,92.198,203.184,91.728,206,91.728L206,91.728z M206,127.41
			c2.707,0,5.035-0.614,6.983-1.843c1.949-1.263,3.447-3.05,4.493-5.36c1.048-2.347,1.57-5.126,1.57-8.338s-0.522-5.974-1.57-8.284
			c-1.046-2.31-2.544-4.078-4.493-5.305c-1.948-1.263-4.276-1.895-6.983-1.895s-5.035,0.632-6.984,1.895
			c-1.949,1.227-3.447,2.996-4.493,5.305c-1.048,2.311-1.569,5.072-1.569,8.284c0,3.211,0.521,5.991,1.569,8.338
			c1.046,2.311,2.544,4.097,4.493,5.36C200.964,126.796,203.292,127.41,206,127.41z"/>
	</g>
	<g transform="matrix(1.536 0 0 1.536 -887.84 512.66)">
		<path fill="#010101" d="M601.881-197.342c-2.281,0-4.47-0.239-6.567-0.717c-2.097-0.479-4.213-1.232-6.347-2.263v-9.326
			c2.061,1.177,4.157,2.078,6.292,2.705c2.171,0.589,4.323,0.882,6.456,0.882c2.097,0,3.679-0.294,4.746-0.882
			c1.067-0.589,1.6-1.417,1.6-2.483c0-0.736-0.239-1.343-0.717-1.821c-0.479-0.478-1.141-0.884-1.987-1.214
			c-0.846-0.331-1.84-0.626-2.98-0.882c-2.502-0.589-4.635-1.251-6.402-1.987c-1.766-0.736-3.201-1.582-4.304-2.539
			c-1.104-0.994-1.914-2.134-2.428-3.421c-0.516-1.288-0.773-2.797-0.773-4.525c0-2.612,0.662-4.857,1.987-6.733
			c1.325-1.912,3.201-3.366,5.629-4.36c2.466-1.03,5.39-1.546,8.775-1.546c2.134,0,4.249,0.239,6.346,0.718
			c2.097,0.479,4.01,1.141,5.739,1.987v9.216c-1.214-0.736-2.502-1.324-3.863-1.766c-1.361-0.479-2.741-0.828-4.139-1.049
			c-1.398-0.257-2.722-0.387-3.974-0.387c-1.839,0-3.274,0.276-4.304,0.828c-0.994,0.515-1.49,1.287-1.49,2.317
			c0,1.067,0.516,1.877,1.546,2.429c1.067,0.515,2.575,1.012,4.526,1.49c2.023,0.515,3.862,1.086,5.518,1.71
			c1.656,0.589,3.091,1.343,4.305,2.263c1.214,0.883,2.151,2.024,2.814,3.421c0.662,1.398,0.994,3.109,0.994,5.132
			c0,2.722-0.681,5.041-2.042,6.954c-1.324,1.914-3.256,3.366-5.795,4.36C608.54-197.839,605.486-197.342,601.881-197.342
			L601.881-197.342z"/>
		<path fill="#010101" d="M636.786-227.695c3.017,0,5.63,0.626,7.837,1.877c2.207,1.214,3.9,2.96,5.077,5.243
			c1.214,2.244,1.822,4.911,1.822,8.002c0,2.281-0.349,4.36-1.048,6.236c-0.662,1.839-1.638,3.421-2.925,4.745
			c-1.288,1.324-2.852,2.337-4.691,3.035c-1.802,0.699-3.826,1.048-6.07,1.048c-2.244,0-4.286-0.35-6.125-1.048
			c-1.803-0.699-3.348-1.711-4.636-3.035c-1.287-1.324-2.281-2.907-2.98-4.745c-0.663-1.877-0.993-3.955-0.993-6.236
			c0-3.091,0.589-5.758,1.766-8.002c1.214-2.281,2.925-4.029,5.132-5.243C631.157-227.069,633.769-227.695,636.786-227.695z
			 M636.786-205.73c1.362,0,2.41-0.588,3.146-1.766c0.772-1.177,1.158-2.852,1.158-5.023c0-2.244-0.387-3.955-1.158-5.132
			c-0.736-1.214-1.785-1.822-3.146-1.822s-2.428,0.608-3.201,1.822c-0.736,1.177-1.104,2.888-1.104,5.132
			c0,2.171,0.368,3.845,1.104,5.023C634.358-206.318,635.424-205.73,636.786-205.73z"/>
		<path fill="#010101" d="M663.689-197.756c-2.87,0-5.004-0.754-6.402-2.263c-1.398-1.545-2.097-3.863-2.097-6.954v-32.394h10.32
			v31.291c0,0.809,0.166,1.397,0.497,1.766c0.331,0.369,0.864,0.553,1.6,0.553c0.736,0,1.472-0.167,2.208-0.497v7.561
			C668.159-198.068,666.117-197.756,663.689-197.756L663.689-197.756z"/>
		<path fill="#010101" d="M697.863-199.411c-1.473,0.626-3.054,1.085-4.746,1.38c-1.656,0.331-3.476,0.496-5.463,0.496
			c-3.348,0-6.2-0.587-8.554-1.765c-2.318-1.176-4.084-2.87-5.298-5.077c-1.214-2.244-1.821-4.985-1.821-8.223
			c0-2.318,0.331-4.396,0.993-6.236c0.662-1.876,1.619-3.478,2.87-4.801c1.251-1.325,2.741-2.337,4.47-3.036
			c1.766-0.699,3.733-1.048,5.906-1.048c2.759,0,5.095,0.57,7.008,1.71c1.949,1.141,3.422,2.815,4.415,5.023
			c0.993,2.207,1.49,4.875,1.49,8.003v2.428h-17.385c0.294,1.95,1.03,3.33,2.207,4.139c1.177,0.772,2.961,1.158,5.353,1.158
			c1.656,0,3.145-0.146,4.47-0.441c1.361-0.331,2.722-0.865,4.084-1.6V-199.411z M686.109-220.713c-2.392,0-3.826,1.6-4.304,4.801
			h8.057c-0.148-1.692-0.534-2.906-1.158-3.642C688.114-220.327,687.25-220.713,686.109-220.713z"/>
		<path fill="#010101" d="M716.833-219.416c-1.546,0-2.815,0.626-3.807,1.876v19.26h-10.32v-28.752h8.83l0.497,3.366
			c2.281-2.722,5.077-4.084,8.387-4.084c3.127,0,5.519,0.975,7.174,2.926c1.693,1.949,2.539,4.765,2.539,8.443v18.101h-10.319
			v-17.77C719.814-218.294,718.821-219.416,716.833-219.416L716.833-219.416z"/>
		<path fill="#010101" d="M754.443-198.722c-1.067,0.404-2.188,0.717-3.367,0.938c-1.139,0.221-2.336,0.331-3.586,0.331
			c-3.459,0-6.088-0.865-7.891-2.594c-1.766-1.766-2.65-4.323-2.65-7.671v-10.817h-4.359v-7.947h4.359v-6.733l10.32-2.262v8.995
			h6.622v7.947h-6.622v9.438c0,2.281,1.16,3.421,3.478,3.421c1.177,0,2.41-0.276,3.698-0.828v7.782H754.443z"/>
	</g>
	<g>
		<path d="M18.425,259.361l-8.01-33.742h8.16l2.554,13.918c0.751,4.004,1.451,8.359,2.002,11.764h0.101
			c0.551-3.653,1.352-7.709,2.202-11.864l2.854-13.817h8.11l2.703,14.219c0.751,3.955,1.302,7.561,1.803,11.313h0.1
			c0.501-3.754,1.252-7.709,1.952-11.715l2.754-13.817h7.76l-8.711,33.743h-8.261l-2.854-14.519
			c-0.65-3.404-1.201-6.559-1.603-10.413h-0.1c-0.601,3.805-1.151,7.009-1.952,10.413l-3.204,14.519L18.425,259.361L18.425,259.361z
			"/>
		<path d="M60.933,249.548c0.25,3.154,3.354,4.656,6.908,4.656c2.604,0,4.706-0.351,6.759-1.002l1.001,5.157
			c-2.503,1.001-5.557,1.502-8.861,1.502c-8.311,0-13.066-4.807-13.066-12.466c0-6.208,3.854-13.066,12.366-13.066
			c7.91,0,10.914,6.157,10.914,12.215c0,1.303-0.15,2.453-0.251,3.004H60.933z M69.893,244.341c0-1.853-0.801-4.955-4.306-4.955
			c-3.204,0-4.506,2.902-4.706,4.955H69.893z"/>
		<path d="M81.46,252.703c1.402,0.852,4.306,1.853,6.559,1.853c2.303,0,3.254-0.802,3.254-2.052c0-1.252-0.751-1.854-3.604-2.805
			c-5.057-1.701-7.009-4.455-6.959-7.359c0-4.555,3.905-8.01,9.963-8.01c2.854,0,5.407,0.65,6.909,1.401l-1.352,5.257
			c-1.102-0.602-3.204-1.402-5.308-1.402c-1.852,0-2.903,0.752-2.903,2.004c0,1.15,0.951,1.752,3.955,2.804
			c4.656,1.603,6.608,3.955,6.658,7.56c0,4.557-3.604,7.91-10.613,7.91c-3.204,0-6.058-0.701-7.91-1.701L81.46,252.703z"/>
		<path d="M111.75,227.871v7.01h5.457v5.606h-5.457v8.861c0,2.954,0.701,4.306,3.004,4.306c0.951,0,1.702-0.101,2.253-0.199
			l0.05,5.756c-1.001,0.4-2.804,0.651-4.956,0.651c-2.453,0-4.506-0.852-5.707-2.103c-1.402-1.452-2.103-3.807-2.103-7.26v-10.014
			h-3.255v-5.607h3.255v-5.307L111.75,227.871z"/>
		<path d="M131.977,226.068c2.804-0.449,6.458-0.699,10.313-0.699c6.408,0,10.563,1.15,13.816,3.604
			c3.505,2.604,5.707,6.759,5.707,12.716c0,6.458-2.354,10.914-5.605,13.668c-3.556,2.953-8.963,4.354-15.57,4.354
			c-3.955,0-6.759-0.25-8.661-0.5V226.068z M139.637,253.604c0.651,0.149,1.702,0.149,2.653,0.149
			c6.908,0.052,11.414-3.754,11.414-11.813c0.051-7.01-4.055-10.714-10.613-10.714c-1.701,0-2.803,0.15-3.454,0.3V253.604z"/>
		<path d="M190.755,246.846c0,8.961-6.357,13.065-12.916,13.065c-7.159,0-12.666-4.705-12.666-12.615s5.205-12.967,13.065-12.967
			C185.749,234.33,190.755,239.486,190.755,246.846z M173.033,247.096c0,4.204,1.752,7.358,5.006,7.358
			c2.955,0,4.856-2.953,4.856-7.358c0-3.654-1.401-7.359-4.856-7.359C174.384,239.736,173.033,243.492,173.033,247.096z"/>
		<path d="M195.462,242.94c0-3.604-0.1-5.958-0.199-8.062h6.559l0.25,4.507h0.2c1.252-3.556,4.256-5.058,6.608-5.058
			c0.701,0,1.052,0,1.603,0.102v7.158c-0.551-0.101-1.2-0.199-2.053-0.199c-2.804,0-4.706,1.502-5.207,3.854
			c-0.101,0.502-0.149,1.103-0.149,1.702v12.416h-7.609v-16.42H195.462z"/>
		<path d="M214.437,252.703c1.4,0.852,4.307,1.853,6.559,1.853c2.303,0,3.254-0.802,3.254-2.052c0-1.252-0.75-1.854-3.604-2.805
			c-5.057-1.701-7.009-4.455-6.959-7.359c0-4.555,3.904-8.01,9.963-8.01c2.854,0,5.406,0.65,6.908,1.401l-1.352,5.257
			c-1.103-0.602-3.205-1.402-5.308-1.402c-1.853,0-2.903,0.752-2.903,2.004c0,1.15,0.951,1.752,3.955,2.804
			c4.655,1.603,6.608,3.955,6.658,7.56c0,4.557-3.604,7.91-10.613,7.91c-3.203,0-6.058-0.701-7.91-1.701L214.437,252.703z"/>
		<path d="M242.074,249.548c0.252,3.154,3.354,4.656,6.909,4.656c2.604,0,4.706-0.351,6.759-1.002l1.002,5.157
			c-2.504,1.001-5.558,1.502-8.861,1.502c-8.312,0-13.066-4.807-13.066-12.466c0-6.208,3.854-13.066,12.365-13.066
			c7.91,0,10.914,6.157,10.914,12.215c0,1.303-0.15,2.453-0.25,3.004H242.074z M251.037,244.341c0-1.853-0.802-4.955-4.307-4.955
			c-3.204,0-4.506,2.902-4.706,4.955H251.037z"/>
		<path d="M271.164,227.871v7.01h5.457v5.606h-5.457v8.861c0,2.954,0.7,4.306,3.004,4.306c0.951,0,1.701-0.101,2.252-0.199
			l0.052,5.756c-1.003,0.4-2.804,0.651-4.957,0.651c-2.453,0-4.507-0.852-5.707-2.103c-1.401-1.452-2.103-3.807-2.103-7.26v-10.014
			h-3.254v-5.607h3.254v-5.307L271.164,227.871z"/>
	</g>
</g>
</svg>
