<?xml version="1.0" encoding="utf-8"?>
<!-- Generator: Adobe Illustrator 16.0.3, SVG Export Plug-In . SVG Version: 6.00 Build 0)  -->
<!DOCTYPE svg PUBLIC "-//W3C//DTD SVG 1.1//EN" "http://www.w3.org/Graphics/SVG/1.1/DTD/svg11.dtd">
<svg version="1.1" id="Layer_1" xmlns="http://www.w3.org/2000/svg" xmlns:xlink="http://www.w3.org/1999/xlink" x="0px" y="0px"
	 width="283.46px" height="283.46px" viewBox="0 0 283.46 283.46" enable-background="new 0 0 283.46 283.46" xml:space="preserve">
<g id="Layer_3">
	<g>
		<path fill="#010101" d="M151.63,54.396c0,5.846-7.273,5.498-7.273,5.498h-7.275V49.332h7.275
			C151.843,49.28,151.63,54.396,151.63,54.396 M137.082,33.221h5.542c5.758,0.306,5.539,4.591,5.539,4.591
			c0,5.325-6.365,5.412-6.365,5.412h-4.718L137.082,33.221L137.082,33.221z M150.285,45.302c0,0,4.979-2.122,4.936-7.751
			c0,0,0.758-9.221-11.463-10.346h-13.559v38.664h15.542c0,0,12.986,0.062,12.986-10.908
			C158.727,54.96,159.033,47.51,150.285,45.302 M115.193,19.627h57.086v53.795h-57.086V19.627z M85.799,54.394
			c0,5.847-7.274,5.5-7.274,5.5H71.25V49.33h7.275C86.012,49.279,85.799,54.394,85.799,54.394 M71.249,33.22h5.544
			c5.756,0.307,5.538,4.59,5.538,4.59c0,5.326-6.364,5.412-6.364,5.412h-4.718V33.22z M84.453,45.3c0,0,4.98-2.121,4.936-7.749
			c0,0,0.756-9.223-11.463-10.348h-13.56v38.665h15.543c0,0,12.986,0.063,12.986-10.908C92.896,54.959,93.2,47.508,84.453,45.3
			 M49.362,19.626h57.086v53.795H49.362V19.626z M226.468,29.974v7.145c0,0-6.973-4.286-14.678-4.372
			c0,0-14.377-0.286-15.023,13.779c0,0-0.52,12.931,14.852,13.668c0,0,6.447,0.777,15.196-4.801v7.397
			c0,0-11.735,6.973-25.329,1.602c0,0-11.428-4.172-11.863-17.866c0,0-0.475-14.083,14.768-18.758c0,0,4.068-1.56,11.384-0.866
			c0.001,0,4.371,0.433,10.697,3.072 M181.028,73.423h57.086V19.627h-57.086V73.423z"/>
	</g>
	<g>
		<path fill="#010101" d="M67.938,143.151v15.593h-5.306v-38.713h12.506c4.909,0,8.663,1.012,11.262,3.034
			c2.635,1.985,3.953,4.836,3.953,8.553c0,2.6-0.704,4.802-2.111,6.606c-1.407,1.806-3.411,3.123-6.01,3.953
			c3.609,5.378,7.093,10.9,10.449,16.566h-6.227c-1.517-2.671-3.068-5.287-4.656-7.852c-1.553-2.6-3.177-5.197-4.874-7.796
			c-0.577,0.042-1.19,0.062-1.841,0.062L67.938,143.151z M67.938,138.82h6.767c3.43,0,5.992-0.596,7.689-1.788
			c1.696-1.19,2.545-2.996,2.545-5.415c0-4.836-3.394-7.253-10.18-7.253h-6.821V138.82z"/>
		<path fill="#010101" d="M127.331,158.742c-0.649-1.77-1.299-3.521-1.949-5.253c-0.613-1.731-1.245-3.465-1.895-5.196h-18.191
			c-1.3,3.429-2.581,6.912-3.845,10.449h-5.576c2.562-6.787,5.143-13.408,7.741-19.87c2.636-6.462,5.307-12.743,8.014-18.844h5.631
			c2.815,6.461,5.522,12.923,8.121,19.385c2.635,6.459,5.197,12.902,7.688,19.329H127.331z M107.026,143.744h14.727
			c-1.227-3.142-2.454-6.246-3.681-9.313c-1.228-3.068-2.455-6.117-3.683-9.15c-1.263,3.068-2.508,6.137-3.734,9.205
			C109.427,137.553,108.218,140.64,107.026,143.744L107.026,143.744z"/>
		<path fill="#010101" d="M137.306,120.111h13.48c3.971,0,7.383,0.758,10.233,2.274c2.888,1.481,5.089,3.647,6.604,6.499
			c1.553,2.853,2.328,6.335,2.328,10.449s-0.775,7.633-2.328,10.558c-1.517,2.888-3.717,5.108-6.604,6.66
			c-2.853,1.516-6.28,2.271-10.287,2.271h-13.428L137.306,120.111L137.306,120.111z M150.354,154.277
			c4.476,0,7.922-1.264,10.341-3.79c2.454-2.526,3.682-6.245,3.682-11.153c0-4.838-1.209-8.483-3.627-10.937
			c-2.383-2.491-5.83-3.736-10.342-3.736h-7.742v29.616H150.354L150.354,154.277z"/>
		<path fill="#010101" d="M176.005,120.111h5.359v38.713h-5.359V120.111z"/>
		<path fill="#010101" d="M206.22,119.284c2.814,0,5.359,0.469,7.634,1.408c2.312,0.939,4.276,2.292,5.901,4.06
			c1.66,1.769,2.924,3.897,3.789,6.389c0.867,2.455,1.301,5.216,1.301,8.284c0,3.069-0.451,5.849-1.354,8.339
			c-0.867,2.454-2.113,4.563-3.736,6.334c-1.625,1.769-3.592,3.141-5.901,4.114c-2.274,0.938-4.817,1.408-7.634,1.408
			s-5.379-0.471-7.688-1.408c-2.275-0.975-4.225-2.346-5.85-4.114c-1.623-1.771-2.887-3.88-3.79-6.334
			c-0.866-2.49-1.299-5.271-1.299-8.339c0-3.068,0.433-5.829,1.299-8.284c0.866-2.49,2.112-4.62,3.735-6.389
			c1.66-1.768,3.629-3.121,5.902-4.06C200.841,119.753,203.404,119.284,206.22,119.284L206.22,119.284z M206.22,154.966
			c2.707,0,5.035-0.614,6.984-1.844c1.948-1.263,3.446-3.05,4.492-5.359c1.049-2.348,1.57-5.126,1.57-8.338
			c0-3.212-0.521-5.974-1.57-8.284c-1.046-2.31-2.544-4.078-4.492-5.305c-1.949-1.263-4.277-1.895-6.984-1.895
			s-5.035,0.632-6.984,1.895c-1.949,1.227-3.447,2.996-4.492,5.305c-1.049,2.311-1.57,5.072-1.57,8.284
			c0,3.211,0.521,5.991,1.57,8.338c1.045,2.311,2.543,4.097,4.492,5.359C201.185,154.352,203.513,154.966,206.22,154.966z"/>
	</g>
	<g transform="matrix(1.536 0 0 1.536 -887.84 512.66)">
		<path fill="#010101" d="M602.025-161.463c-2.281,0-4.47-0.239-6.567-0.717c-2.097-0.479-4.212-1.232-6.347-2.263v-9.326
			c2.06,1.176,4.157,2.078,6.291,2.703c2.171,0.589,4.323,0.882,6.456,0.882c2.097,0,3.679-0.294,4.746-0.882
			c1.067-0.589,1.6-1.416,1.6-2.483c0-0.736-0.239-1.343-0.717-1.822c-0.478-0.477-1.14-0.884-1.987-1.214
			c-0.846-0.331-1.84-0.626-2.98-0.882c-2.502-0.589-4.635-1.251-6.402-1.987c-1.766-0.736-3.201-1.582-4.304-2.539
			c-1.104-0.994-1.914-2.134-2.428-3.421c-0.515-1.288-0.773-2.797-0.773-4.525c0-2.612,0.663-4.857,1.987-6.733
			c1.325-1.912,3.201-3.366,5.629-4.36c2.465-1.03,5.39-1.546,8.775-1.546c2.134,0,4.249,0.239,6.346,0.718
			c2.097,0.479,4.011,1.141,5.739,1.987v9.216c-1.214-0.736-2.502-1.324-3.863-1.766c-1.362-0.479-2.741-0.828-4.139-1.049
			c-1.398-0.257-2.722-0.387-3.973-0.387c-1.84,0-3.275,0.276-4.305,0.828c-0.993,0.515-1.49,1.287-1.49,2.317
			c0,1.067,0.515,1.877,1.545,2.429c1.067,0.515,2.575,1.012,4.525,1.49c2.023,0.515,3.863,1.086,5.518,1.712
			c1.656,0.589,3.09,1.343,4.305,2.263c1.214,0.883,2.152,2.024,2.814,3.421c0.662,1.397,0.993,3.109,0.993,5.132
			c0,2.722-0.681,5.04-2.042,6.954c-1.324,1.912-3.256,3.366-5.794,4.36C608.684-161.959,605.63-161.463,602.025-161.463
			L602.025-161.463z"/>
		<path fill="#010101" d="M636.93-191.815c3.017,0,5.63,0.626,7.836,1.877c2.208,1.214,3.9,2.961,5.077,5.243
			c1.214,2.244,1.822,4.911,1.822,8.002c0,2.281-0.349,4.36-1.048,6.236c-0.662,1.839-1.637,3.422-2.925,4.745
			c-1.288,1.324-2.851,2.337-4.691,3.035c-1.803,0.699-3.826,1.048-6.07,1.048c-2.244,0-4.286-0.349-6.125-1.048
			c-1.803-0.699-3.348-1.712-4.636-3.035c-1.287-1.324-2.281-2.907-2.98-4.745c-0.662-1.877-0.993-3.955-0.993-6.236
			c0-3.091,0.588-5.758,1.766-8.002c1.214-2.281,2.925-4.029,5.132-5.243C631.301-191.189,633.913-191.815,636.93-191.815z
			 M636.93-169.851c1.362,0,2.41-0.588,3.146-1.766c0.772-1.177,1.158-2.851,1.158-5.023c0-2.244-0.386-3.955-1.158-5.132
			c-0.736-1.214-1.784-1.821-3.146-1.821c-1.361,0-2.428,0.607-3.201,1.821c-0.736,1.177-1.104,2.888-1.104,5.132
			c0,2.171,0.368,3.845,1.104,5.023C634.502-170.439,635.568-169.851,636.93-169.851z"/>
		<path fill="#010101" d="M663.833-161.876c-2.87,0-5.003-0.754-6.402-2.263c-1.398-1.545-2.097-3.863-2.097-6.954v-32.394h10.32
			v31.29c0,0.809,0.166,1.397,0.497,1.766c0.331,0.369,0.864,0.552,1.6,0.552c0.736,0,1.472-0.167,2.208-0.497v7.561
			C668.303-162.189,666.261-161.876,663.833-161.876L663.833-161.876z"/>
		<path fill="#010101" d="M698.007-163.531c-1.472,0.626-3.054,1.085-4.745,1.38c-1.656,0.331-3.478,0.496-5.463,0.496
			c-3.348,0-6.2-0.588-8.554-1.765c-2.317-1.177-4.084-2.87-5.297-5.078c-1.214-2.244-1.821-4.985-1.821-8.223
			c0-2.318,0.331-4.396,0.993-6.236c0.661-1.876,1.619-3.477,2.87-4.801c1.251-1.325,2.74-2.337,4.47-3.035
			c1.766-0.699,3.735-1.048,5.906-1.048c2.759,0,5.095,0.57,7.008,1.71c1.951,1.141,3.422,2.815,4.415,5.023
			c0.993,2.207,1.49,4.875,1.49,8.002v2.428h-17.384c0.294,1.95,1.03,3.33,2.206,4.139c1.177,0.772,2.961,1.159,5.353,1.159
			c1.656,0,3.145-0.148,4.47-0.441c1.362-0.331,2.722-0.865,4.084-1.6V-163.531L698.007-163.531z M686.253-184.833
			c-2.392,0-3.826,1.6-4.305,4.801h8.057c-0.148-1.692-0.534-2.906-1.158-3.642C688.257-184.447,687.393-184.833,686.253-184.833z"
			/>
		<path fill="#010101" d="M716.978-183.536c-1.546,0-2.815,0.626-3.808,1.876v19.26h-10.32v-28.752h8.83l0.497,3.366
			c2.281-2.722,5.077-4.084,8.388-4.084c3.127,0,5.518,0.975,7.174,2.926c1.692,1.949,2.539,4.764,2.539,8.443v18.101h-10.319
			v-17.769C719.956-182.414,718.964-183.536,716.978-183.536L716.978-183.536z"/>
		<path fill="#010101" d="M754.587-162.842c-1.068,0.405-2.189,0.717-3.367,0.938c-1.14,0.221-2.336,0.331-3.586,0.331
			c-3.459,0-6.089-0.865-7.892-2.594c-1.765-1.766-2.649-4.323-2.649-7.671v-10.817h-4.36v-7.947h4.36v-6.734l10.32-2.261v8.995
			h6.621v7.947h-6.621v9.438c0,2.281,1.158,3.421,3.476,3.421c1.177,0,2.41-0.276,3.698-0.828L754.587-162.842L754.587-162.842z"/>
	</g>
</g>
</svg>
