<?xml version="1.0" encoding="utf-8"?>
<!-- Generator: Adobe Illustrator 16.0.3, SVG Export Plug-In . SVG Version: 6.00 Build 0)  -->
<!DOCTYPE svg PUBLIC "-//W3C//DTD SVG 1.1//EN" "http://www.w3.org/Graphics/SVG/1.1/DTD/svg11.dtd">
<svg version="1.1" id="Layer_1" xmlns="http://www.w3.org/2000/svg" xmlns:xlink="http://www.w3.org/1999/xlink" x="0px" y="0px"
	 width="283.46px" height="283.46px" viewBox="0 0 283.46 283.46" enable-background="new 0 0 283.46 283.46" xml:space="preserve">
<g id="Layer_2">
	<path fill="#F37D21" d="M141.976,42.496c-54.807,0-99.216,44.442-99.216,99.262c0,54.828,44.418,99.274,99.216,99.274
		c54.808,0,99.209-44.446,99.209-99.274C241.185,86.938,196.774,42.496,141.976,42.496 M195.223,203.76H85.675l56.544-66.394
		c8.054-9.098,12.425-15.28,12.425-21.892c0-5.949-4.082-12.368-10.666-12.368c-7.876,0-11.837,7.795-12.156,13.328l-0.289,5.23
		H95.241l0.298-5.826c0.542-10.226,2.26-15.841,7.065-23.144c9.733-14.791,23.354-21.989,41.647-21.989
		c30.866,0,50.016,16.268,50.016,42.467c0,11.038-3.781,19.966-12.563,29.674l-22.497,25.707h36.027L195.223,203.76L195.223,203.76z
		"/>
</g>
</svg>
