<?xml version="1.0" encoding="utf-8"?>
<!-- Generator: Adobe Illustrator 16.0.3, SVG Export Plug-In . SVG Version: 6.00 Build 0)  -->
<!DOCTYPE svg PUBLIC "-//W3C//DTD SVG 1.1//EN" "http://www.w3.org/Graphics/SVG/1.1/DTD/svg11.dtd">
<svg version="1.1" id="Layer_1" xmlns="http://www.w3.org/2000/svg" xmlns:xlink="http://www.w3.org/1999/xlink" x="0px" y="0px"
	 width="283.46px" height="283.46px" viewBox="0 0 283.46 283.46" enable-background="new 0 0 283.46 283.46" xml:space="preserve">
<g id="Layer_4">
	<path fill="#EC1E3C" d="M15.796,144.296c0.004-10.178,8.25-18.449,18.434-18.449c10.169,0,18.43,8.271,18.43,18.449v43.779h12.282
		v-43.779c0-16.986-13.752-30.738-30.711-30.738c-6.918,0-13.313,2.299-18.434,6.163V89.767H3.5v98.311h12.296
		C15.796,188.076,15.796,163.886,15.796,144.296"/>
	<path fill="#EC1E3C" d="M278.5,188.076c-16.961,0-30.726-13.768-30.726-30.744v-30.692h-6.149v-12.302h6.149v-24.57h12.285v24.57
		h18.44v12.303h-18.44v30.689c0,10.19,8.271,18.453,18.44,18.453V188.076L278.5,188.076z"/>
	<path fill="#EC1E3C" d="M180.177,113.558c-13.569,0-24.584,11.003-24.584,24.588v0.773c-11.733,0.007-21.543,8.247-23.988,19.224
		c-3.036,11.08-13.158,19.176-25.177,19.176c-6.941,0-13.263-2.735-17.934-7.132l53.08-34.484
		c-5.953-13.5-19.45-22.905-35.146-22.905c-21.213,0-38.4,17.207-38.4,38.409c0,21.198,17.188,38.418,38.4,38.418
		c11.336,0,21.533-4.916,28.555-12.718c4.382,6.722,11.985,11.149,20.61,11.171h49.162v-49.931
		C204.735,124.561,193.759,113.558,180.177,113.558z M80.312,151.205c0-14.419,11.689-26.109,26.116-26.109
		c6.959,0,13.27,2.699,17.945,7.138c-0.021,0-26.947,17.463-42.601,27.644C80.825,157.164,80.312,154.246,80.312,151.205z
		 M192.458,175.787h-36.865c-6.77-0.014-12.29-5.507-12.29-12.287c0-6.774,5.499-12.272,12.29-12.295h12.289v-13.059
		c0-6.795,5.511-12.299,12.295-12.299c6.777,0,12.271,5.503,12.281,12.299V175.787L192.458,175.787z"/>
	<path fill="#EC1E3C" d="M238.548,114.336c-6.916,0-13.305,2.293-18.435,6.145v-6.145h-12.286v73.74h12.286v-43.012
		c0.009-10.186,8.263-18.425,18.435-18.425V114.336z"/>
</g>
</svg>
