<?xml version="1.0" encoding="utf-8"?>
<!-- Generator: Adobe Illustrator 16.0.3, SVG Export Plug-In . SVG Version: 6.00 Build 0)  -->
<!DOCTYPE svg PUBLIC "-//W3C//DTD SVG 1.1//EN" "http://www.w3.org/Graphics/SVG/1.1/DTD/svg11.dtd">
<svg version="1.1" id="Layer_2" xmlns="http://www.w3.org/2000/svg" xmlns:xlink="http://www.w3.org/1999/xlink" x="0px" y="0px"
	 width="940px" height="650px" viewBox="0 0 940 650" enable-background="new 0 0 940 650" xml:space="preserve">
<g>
	<path fill="#9E9E9E" d="M44.051,436.32c-0.024-0.651-0.04-1.313-0.047-1.985l-0.005-0.5l-1,0.01l0.005,0.5
		c0.007,0.682,0.023,1.353,0.048,2.013l0.019,0.5l1-0.037L44.051,436.32L44.051,436.32z M44.319,440.278
		c-0.064-0.647-0.12-1.306-0.165-1.977l-0.033-0.499l-0.998,0.067l0.034,0.499c0.045,0.681,0.101,1.35,0.167,2.008l0.05,0.498
		l0.995-0.1L44.319,440.278z M44.857,444.2c-0.113-0.639-0.215-1.29-0.306-1.955l-0.068-0.495l-0.991,0.135l0.068,0.496
		c0.092,0.677,0.197,1.342,0.313,1.994l0.087,0.492l0.984-0.175L44.857,444.2z M45.723,448.052
		c-0.172-0.624-0.332-1.262-0.478-1.915l-0.109-0.488l-0.976,0.219l0.109,0.488c0.15,0.668,0.313,1.322,0.49,1.962l0.133,0.482
		l0.964-0.267L45.723,448.052z M46.981,451.782c-0.242-0.599-0.469-1.214-0.682-1.846l-0.16-0.474l-0.948,0.318l0.159,0.475
		c0.219,0.65,0.453,1.284,0.703,1.901l0.188,0.464l0.927-0.375L46.981,451.782z M48.692,455.312
		c-0.322-0.56-0.627-1.138-0.916-1.734l-0.218-0.45l-0.9,0.436l0.218,0.45c0.299,0.617,0.615,1.217,0.949,1.798l0.25,0.433
		l0.867-0.498L48.692,455.312z M50.898,458.543c-0.407-0.505-0.795-1.028-1.166-1.571l-0.282-0.413l-0.826,0.563l0.282,0.413
		c0.385,0.564,0.79,1.11,1.213,1.636l0.314,0.389l0.778-0.627L50.898,458.543z M53.593,461.37c-0.488-0.434-0.957-0.886-1.406-1.357
		l-0.345-0.362l-0.724,0.69l0.345,0.361c0.468,0.492,0.957,0.964,1.465,1.416l0.374,0.332l0.664-0.748L53.593,461.37z
		 M56.716,463.72c-0.556-0.354-1.092-0.725-1.61-1.113l-0.4-0.301l-0.601,0.8l0.4,0.301c0.539,0.404,1.097,0.79,1.674,1.157
		l0.422,0.268l0.536-0.844L56.716,463.72z M60.17,465.572c-0.605-0.272-1.192-0.561-1.762-0.865l-0.441-0.235l-0.472,0.882
		l0.441,0.235c0.59,0.316,1.198,0.614,1.824,0.896l0.456,0.205l0.41-0.912L60.17,465.572z M63.852,466.955
		c-0.638-0.197-1.258-0.409-1.863-0.636l-0.468-0.176l-0.351,0.937l0.468,0.176c0.623,0.233,1.262,0.451,1.917,0.654l0.478,0.148
		l0.296-0.955L63.852,466.955z M67.675,467.928c-0.656-0.134-1.298-0.28-1.925-0.439l-0.484-0.123l-0.246,0.97l0.485,0.122
		c0.643,0.163,1.3,0.313,1.971,0.45l0.49,0.1l0.2-0.979L67.675,467.928z M71.581,468.555c-0.667-0.081-1.32-0.172-1.96-0.274
		l-0.494-0.079l-0.158,0.987l0.494,0.079c0.654,0.104,1.32,0.197,1.999,0.279l0.496,0.061l0.12-0.993L71.581,468.555z
		 M75.53,468.895c-0.671-0.036-1.331-0.082-1.979-0.138l-0.498-0.042l-0.085,0.996l0.498,0.043c0.659,0.056,1.329,0.103,2.01,0.14
		l0.5,0.027l0.054-0.999L75.53,468.895z M79.5,469c-0.672,0-1.334-0.009-1.986-0.025l-0.5-0.013l-0.026,1l0.5,0.013
		C78.149,469.991,78.819,470,79.5,470H80v-1H79.5z"/>
	<path fill="#9E9E9E" d="M82.32,396.948c-0.651,0.024-1.313,0.04-1.986,0.048l-0.5,0.005l0.011,1l0.5-0.006
		c0.681-0.007,1.352-0.022,2.012-0.047l0.5-0.02l-0.038-0.999L82.32,396.948z M86.278,396.68c-0.647,0.065-1.306,0.12-1.976,0.165
		l-0.499,0.033l0.067,0.998l0.499-0.033c0.681-0.046,1.351-0.102,2.009-0.168l0.498-0.05l-0.1-0.994L86.278,396.68z M90.2,396.142
		c-0.638,0.113-1.29,0.216-1.955,0.307l-0.496,0.067l0.135,0.991l0.496-0.067c0.678-0.093,1.342-0.197,1.995-0.313l0.492-0.087
		l-0.175-0.984L90.2,396.142z M94.052,395.276c-0.623,0.173-1.262,0.332-1.915,0.479l-0.488,0.109l0.219,0.976l0.488-0.109
		c0.669-0.149,1.323-0.313,1.963-0.49l0.482-0.133l-0.267-0.964L94.052,395.276z M97.782,394.018
		c-0.598,0.242-1.213,0.47-1.845,0.683l-0.474,0.159l0.319,0.947l0.474-0.159c0.65-0.219,1.285-0.453,1.902-0.703l0.463-0.188
		l-0.375-0.927L97.782,394.018z M101.313,392.307c-0.56,0.321-1.138,0.627-1.734,0.915l-0.45,0.218l0.436,0.9l0.45-0.218
		c0.617-0.299,1.216-0.614,1.797-0.949l0.434-0.249l-0.499-0.867L101.313,392.307z M104.543,390.101
		c-0.504,0.407-1.028,0.796-1.571,1.166l-0.413,0.281l0.563,0.826l0.413-0.281c0.565-0.385,1.11-0.789,1.636-1.214l0.389-0.313
		l-0.628-0.778L104.543,390.101z M107.37,387.407c-0.433,0.488-0.886,0.956-1.357,1.406l-0.362,0.345l0.69,0.724l0.362-0.345
		c0.492-0.469,0.963-0.957,1.415-1.466l0.332-0.373l-0.748-0.665L107.37,387.407z M109.72,384.284
		c-0.353,0.556-0.724,1.092-1.113,1.609l-0.3,0.399l0.799,0.602l0.3-0.4c0.405-0.539,0.791-1.097,1.158-1.675l0.268-0.422
		l-0.844-0.536L109.72,384.284z M111.572,380.83c-0.272,0.604-0.56,1.192-0.865,1.762l-0.236,0.44l0.882,0.472l0.236-0.44
		c0.316-0.591,0.614-1.198,0.895-1.824l0.205-0.456l-0.913-0.409L111.572,380.83z M112.956,377.148
		c-0.198,0.638-0.41,1.259-0.636,1.863l-0.176,0.468l0.937,0.352l0.175-0.469c0.234-0.623,0.452-1.263,0.655-1.918l0.148-0.478
		l-0.955-0.296L112.956,377.148z M113.928,373.325c-0.134,0.656-0.28,1.298-0.439,1.925l-0.123,0.485l0.969,0.245l0.123-0.484
		c0.163-0.643,0.313-1.3,0.45-1.971l0.1-0.49l-0.979-0.2L113.928,373.325z M114.555,369.419c-0.08,0.667-0.171,1.32-0.274,1.961
		l-0.079,0.493l0.987,0.158l0.079-0.493c0.104-0.654,0.198-1.32,0.28-1.999l0.06-0.496l-0.993-0.12L114.555,369.419z
		 M114.896,365.469c-0.037,0.671-0.083,1.33-0.138,1.979l-0.043,0.498l0.997,0.086l0.042-0.499c0.057-0.658,0.103-1.328,0.14-2.01
		l0.027-0.499l-0.999-0.054L114.896,365.469z M115,361.5c0,0.672-0.008,1.334-0.025,1.986l-0.013,0.5l1,0.025l0.013-0.5
		c0.017-0.66,0.025-1.331,0.025-2.012V361h-1V361.5z"/>
	<path fill="#9E9E9E" d="M43.052,205.642c-0.025,0.661-0.041,1.331-0.048,2.012l-0.005,0.5l1,0.011l0.005-0.5
		c0.007-0.672,0.023-1.334,0.047-1.986l0.019-0.5l-1-0.038L43.052,205.642z M43.324,201.622c-0.066,0.658-0.122,1.328-0.167,2.009
		l-0.034,0.499l0.998,0.067l0.033-0.499c0.045-0.67,0.1-1.329,0.165-1.976l0.05-0.498l-0.995-0.1L43.324,201.622z M43.873,197.625
		c-0.116,0.652-0.22,1.317-0.313,1.995l-0.068,0.496l0.991,0.135l0.068-0.496c0.091-0.665,0.193-1.316,0.306-1.955l0.087-0.492
		l-0.984-0.175L43.873,197.625L43.873,197.625z M44.759,193.681c-0.177,0.64-0.34,1.294-0.49,1.963l-0.109,0.488l0.976,0.219
		l0.109-0.488c0.146-0.653,0.306-1.292,0.478-1.915l0.133-0.482l-0.964-0.267L44.759,193.681z M46.054,189.842
		c-0.25,0.618-0.484,1.252-0.703,1.902l-0.159,0.474l0.948,0.319l0.16-0.474c0.212-0.632,0.439-1.247,0.682-1.845l0.188-0.464
		l-0.927-0.375L46.054,189.842z M47.826,186.189c-0.334,0.581-0.65,1.18-0.949,1.797l-0.218,0.45l0.9,0.436l0.218-0.45
		c0.289-0.597,0.594-1.174,0.916-1.734l0.25-0.434l-0.867-0.499L47.826,186.189z M50.12,182.829
		c-0.424,0.526-0.828,1.071-1.213,1.636l-0.282,0.413l0.826,0.563l0.282-0.413c0.37-0.543,0.759-1.067,1.166-1.571l0.314-0.389
		l-0.778-0.628L50.12,182.829z M52.928,179.882c-0.508,0.452-0.997,0.923-1.465,1.415l-0.345,0.362l0.724,0.69l0.345-0.362
		c0.45-0.472,0.918-0.924,1.406-1.357l0.374-0.332l-0.664-0.748L52.928,179.882z M56.18,177.435
		c-0.578,0.367-1.136,0.752-1.674,1.158l-0.4,0.3l0.601,0.799l0.4-0.3c0.518-0.389,1.054-0.76,1.61-1.113l0.422-0.268l-0.536-0.844
		L56.18,177.435z M59.761,175.515c-0.626,0.281-1.234,0.58-1.824,0.895l-0.441,0.236l0.472,0.882l0.441-0.236
		c0.569-0.305,1.156-0.593,1.762-0.865l0.456-0.205l-0.41-0.912L59.761,175.515z M63.555,174.089
		c-0.655,0.203-1.294,0.421-1.917,0.655l-0.468,0.175l0.351,0.937l0.468-0.175c0.605-0.227,1.226-0.439,1.863-0.637l0.478-0.148
		l-0.296-0.955L63.555,174.089z M67.475,173.092c-0.671,0.137-1.328,0.287-1.971,0.45l-0.485,0.123l0.246,0.969l0.484-0.123
		c0.627-0.159,1.269-0.305,1.925-0.439l0.49-0.1l-0.2-0.979L67.475,173.092z M71.461,172.451c-0.679,0.082-1.345,0.175-1.999,0.28
		l-0.494,0.079l0.158,0.987l0.494-0.079c0.641-0.103,1.294-0.194,1.96-0.274l0.497-0.06l-0.12-0.993L71.461,172.451L71.461,172.451z
		 M75.476,172.105c-0.681,0.037-1.351,0.083-2.01,0.14l-0.498,0.042l0.085,0.997l0.498-0.043c0.648-0.055,1.308-0.101,1.979-0.138
		l0.5-0.027l-0.054-0.999L75.476,172.105z M79.5,172c-0.681,0-1.351,0.008-2.012,0.025l-0.5,0.013l0.026,1l0.5-0.013
		C78.166,173.008,78.828,173,79.5,173H80v-1H79.5z"/>
	<path fill="#9E9E9E" d="M556.012,431.948c-0.008,0.513-0.012,1.03-0.012,1.552v0.5h1v-0.5c0-0.517,0.004-1.028,0.012-1.536
		l0.008-0.5l-1-0.016L556.012,431.948z M556.163,427.93c-0.04,0.66-0.073,1.33-0.099,2.008l-0.019,0.5l1,0.037l0.019-0.499
		c0.024-0.671,0.058-1.333,0.097-1.985l0.03-0.499l-0.998-0.061L556.163,427.93z M556.511,423.921
		c-0.075,0.658-0.142,1.326-0.2,2.003l-0.043,0.498l0.996,0.086l0.043-0.498c0.058-0.668,0.123-1.327,0.197-1.976l0.057-0.497
		l-0.993-0.113L556.511,423.921z M557.088,419.933c-0.116,0.653-0.223,1.316-0.32,1.99l-0.071,0.494l0.99,0.144l0.071-0.495
		c0.096-0.663,0.2-1.315,0.314-1.958l0.088-0.492l-0.985-0.175L557.088,419.933z M557.935,415.99
		c-0.164,0.644-0.317,1.299-0.46,1.965l-0.104,0.489l0.978,0.209l0.104-0.489c0.141-0.653,0.291-1.296,0.451-1.927l0.123-0.484
		l-0.969-0.247L557.935,415.99z M559.095,412.122c-0.22,0.628-0.427,1.269-0.622,1.922l-0.144,0.479l0.958,0.287l0.144-0.479
		c0.191-0.64,0.394-1.266,0.608-1.88l0.164-0.472l-0.943-0.33L559.095,412.122z M560.614,408.373
		c-0.282,0.605-0.552,1.224-0.808,1.856l-0.188,0.463l0.927,0.375l0.188-0.463c0.25-0.617,0.512-1.22,0.787-1.808l0.211-0.453
		l-0.906-0.424L560.614,408.373z M562.532,404.805c-0.352,0.571-0.688,1.156-1.011,1.757l-0.236,0.44l0.881,0.474l0.236-0.441
		c0.313-0.583,0.64-1.151,0.981-1.705l0.262-0.426l-0.852-0.524L562.532,404.805z M564.869,401.492
		c-0.422,0.524-0.829,1.064-1.222,1.62l-0.288,0.409l0.817,0.576l0.288-0.409c0.38-0.538,0.774-1.061,1.184-1.568l0.313-0.389
		l-0.778-0.628L564.869,401.492z M567.617,398.511c-0.49,0.465-0.964,0.946-1.423,1.443l-0.338,0.368l0.735,0.678l0.338-0.368
		c0.443-0.48,0.902-0.946,1.376-1.396l0.362-0.345l-0.688-0.725L567.617,398.511z M570.737,395.916
		c-0.549,0.399-1.083,0.815-1.602,1.246l-0.385,0.319l0.64,0.769l0.385-0.319c0.501-0.417,1.018-0.818,1.551-1.205l0.404-0.294
		l-0.588-0.81L570.737,395.916z M574.158,393.742c-0.596,0.33-1.177,0.675-1.743,1.034l-0.422,0.268l0.536,0.845l0.422-0.269
		c0.549-0.349,1.112-0.683,1.691-1.004l0.438-0.242l-0.484-0.874L574.158,393.742z M577.804,391.981
		c-0.629,0.264-1.245,0.54-1.847,0.83l-0.45,0.217l0.435,0.901l0.45-0.218c0.585-0.281,1.185-0.551,1.798-0.808l0.461-0.192
		l-0.386-0.923L577.804,391.981L577.804,391.981z M581.604,390.606c-0.651,0.202-1.29,0.416-1.916,0.643l-0.47,0.17l0.339,0.94
		l0.471-0.17c0.611-0.221,1.235-0.43,1.873-0.628l0.478-0.148l-0.297-0.955L581.604,390.606z M585.507,389.573
		c-0.665,0.148-1.319,0.307-1.961,0.477l-0.483,0.128l0.256,0.967l0.483-0.128c0.629-0.166,1.27-0.322,1.923-0.468l0.487-0.108
		l-0.218-0.977L585.507,389.573z M589.47,388.835c-0.673,0.103-1.335,0.214-1.987,0.335l-0.491,0.091l0.182,0.983l0.492-0.091
		c0.641-0.119,1.292-0.229,1.954-0.329l0.495-0.075l-0.15-0.988L589.47,388.835z M593.467,388.351
		c-0.677,0.063-1.344,0.133-2.001,0.213l-0.497,0.06l0.12,0.993l0.496-0.061c0.648-0.078,1.307-0.148,1.975-0.21l0.497-0.046
		l-0.092-0.996L593.467,388.351z M597.481,388.083c-0.679,0.029-1.348,0.065-2.009,0.109l-0.499,0.033l0.066,0.998l0.499-0.033
		c0.652-0.044,1.314-0.08,1.984-0.108l0.5-0.021l-0.043-1L597.481,388.083z M601.5,388c-0.678,0-1.348,0.007-2.01,0.021l-0.5,0.01
		l0.021,1l0.5-0.01c0.655-0.014,1.318-0.021,1.989-0.021h0.5v-1H601.5z"/>
	<path fill="#9E9E9E" d="M560.312,63.872c-0.655,0.044-1.315,0.077-1.979,0.099l-0.499,0.016l0.032,1l0.499-0.016
		c0.676-0.022,1.348-0.056,2.015-0.101l0.499-0.034l-0.067-0.998L560.312,63.872L560.312,63.872z M564.254,63.464
		c-0.651,0.091-1.307,0.171-1.967,0.239l-0.498,0.051l0.104,0.995l0.497-0.051c0.672-0.069,1.34-0.151,2.003-0.244l0.495-0.069
		l-0.139-0.99L564.254,63.464z M568.155,62.772c-0.643,0.139-1.291,0.266-1.944,0.382l-0.492,0.087l0.175,0.984l0.492-0.087
		c0.665-0.118,1.326-0.248,1.98-0.389l0.488-0.105l-0.211-0.978L568.155,62.772z M571.993,61.792
		c-0.63,0.187-1.267,0.362-1.91,0.526l-0.484,0.124l0.247,0.969l0.485-0.124c0.655-0.167,1.304-0.346,1.946-0.536l0.479-0.142
		l-0.284-0.959L571.993,61.792z M575.744,60.522c-0.613,0.235-1.234,0.458-1.863,0.671l-0.474,0.161l0.32,0.947l0.474-0.16
		c0.642-0.217,1.274-0.445,1.9-0.685l0.467-0.179l-0.357-0.934L575.744,60.522z M579.381,58.96
		c-0.592,0.283-1.193,0.556-1.803,0.818l-0.459,0.197l0.395,0.919l0.459-0.197c0.622-0.267,1.235-0.545,1.84-0.835l0.451-0.216
		l-0.432-0.902L579.381,58.96z M582.874,57.103c-0.565,0.332-1.142,0.654-1.727,0.965l-0.441,0.234l0.469,0.883l0.441-0.235
		c0.599-0.317,1.187-0.646,1.765-0.986l0.431-0.253l-0.507-0.862L582.874,57.103z M586.19,54.951
		c-0.533,0.381-1.078,0.752-1.634,1.113l-0.42,0.272l0.545,0.839l0.419-0.272c0.568-0.369,1.126-0.748,1.672-1.138l0.406-0.291
		l-0.581-0.813L586.19,54.951z M589.294,52.505c-0.495,0.43-1.002,0.85-1.522,1.259l-0.393,0.31l0.619,0.786l0.393-0.31
		c0.532-0.419,1.053-0.85,1.559-1.29l0.378-0.328l-0.656-0.754L589.294,52.505z M592.14,49.77c-0.448,0.477-0.911,0.945-1.389,1.403
		l-0.36,0.346l0.693,0.721l0.36-0.346c0.489-0.47,0.964-0.95,1.424-1.44l0.343-0.365l-0.729-0.685L592.14,49.77z M594.68,46.755
		c-0.394,0.523-0.803,1.037-1.229,1.542l-0.322,0.382l0.765,0.645l0.322-0.382c0.438-0.519,0.858-1.047,1.263-1.585l0.301-0.4
		l-0.799-0.601L594.68,46.755z M596.862,43.477c-0.33,0.565-0.678,1.122-1.043,1.67l-0.277,0.416l0.832,0.555l0.277-0.417
		c0.376-0.564,0.734-1.138,1.074-1.721l0.252-0.432l-0.863-0.504L596.862,43.477z M598.63,39.968
		c-0.257,0.601-0.532,1.194-0.828,1.78l-0.225,0.446l0.893,0.45l0.226-0.447c0.305-0.604,0.59-1.217,0.854-1.837l0.196-0.46
		l-0.92-0.393L598.63,39.968z M599.934,36.265c-0.176,0.631-0.373,1.255-0.591,1.874l-0.166,0.471l0.943,0.333l0.166-0.472
		c0.225-0.639,0.429-1.284,0.611-1.937l0.134-0.482l-0.963-0.269L599.934,36.265z M600.732,32.416
		c-0.089,0.652-0.2,1.298-0.334,1.939l-0.102,0.489l0.979,0.204l0.102-0.49c0.138-0.663,0.253-1.332,0.346-2.006l0.068-0.496
		l-0.991-0.136L600.732,32.416z M601,28.5c0,0.659-0.022,1.313-0.066,1.962l-0.034,0.499l0.998,0.068l0.033-0.499
		c0.046-0.672,0.069-1.35,0.069-2.031V28h-1V28.5z"/>
	<path fill="#9E9E9E" d="M520,163.5c0,0.339,0.005,0.677,0.014,1.013l0.014,0.5l0.999-0.026l-0.013-0.5
		c-0.009-0.328-0.014-0.657-0.014-0.987V163h-1V163.5z"/>
	<path fill="#9E9E9E" d="M551.376,199.644c0.673,0.094,1.351,0.17,2.034,0.227l0.498,0.042l0.084-0.997l-0.498-0.042
		c-0.666-0.056-1.325-0.13-1.979-0.222l-0.495-0.069l-0.139,0.99L551.376,199.644z M547.361,198.848
		c0.658,0.169,1.324,0.321,1.996,0.454l0.49,0.097l0.194-0.981l-0.49-0.097c-0.654-0.129-1.301-0.277-1.941-0.441l-0.484-0.125
		l-0.249,0.969L547.361,198.848z M543.461,197.606c0.636,0.243,1.28,0.468,1.933,0.676l0.477,0.152l0.304-0.953l-0.477-0.152
		c-0.635-0.202-1.262-0.421-1.88-0.658l-0.467-0.178l-0.356,0.934L543.461,197.606z M539.73,195.934
		c0.604,0.313,1.219,0.609,1.842,0.889l0.456,0.205l0.409-0.913l-0.456-0.205c-0.606-0.271-1.203-0.56-1.791-0.864l-0.444-0.23
		l-0.46,0.888L539.73,195.934z M536.21,193.854c0.565,0.379,1.144,0.743,1.731,1.09l0.431,0.254l0.509-0.861l-0.431-0.254
		c-0.572-0.338-1.134-0.691-1.685-1.06l-0.415-0.278l-0.557,0.831L536.21,193.854z M532.942,191.391
		c0.521,0.44,1.054,0.866,1.6,1.277l0.399,0.301l0.602-0.799l-0.399-0.301c-0.53-0.399-1.049-0.814-1.556-1.242l-0.382-0.323
		l-0.646,0.764L532.942,191.391z M529.969,188.579c0.469,0.496,0.952,0.979,1.448,1.448l0.362,0.344l0.688-0.727l-0.363-0.344
		c-0.482-0.456-0.952-0.926-1.408-1.408l-0.344-0.363l-0.727,0.687L529.969,188.579z M527.326,185.452
		c0.411,0.546,0.838,1.08,1.278,1.601l0.322,0.382l0.764-0.646l-0.322-0.382c-0.429-0.507-0.843-1.026-1.243-1.557l-0.301-0.399
		l-0.799,0.602L527.326,185.452z M525.05,182.048c0.348,0.589,0.711,1.167,1.091,1.734l0.277,0.416l0.832-0.556l-0.278-0.416
		c-0.369-0.551-0.723-1.114-1.062-1.687l-0.254-0.431l-0.861,0.509L525.05,182.048z M523.168,178.408
		c0.279,0.625,0.576,1.241,0.89,1.847l0.229,0.444l0.889-0.459l-0.23-0.444c-0.305-0.589-0.593-1.188-0.865-1.796l-0.204-0.456
		l-0.912,0.408L523.168,178.408z M521.708,174.577c0.207,0.654,0.433,1.299,0.676,1.937l0.178,0.467l0.935-0.356l-0.178-0.467
		c-0.236-0.619-0.456-1.247-0.657-1.883l-0.151-0.477l-0.953,0.303L521.708,174.577z M520.69,170.612
		c0.133,0.672,0.284,1.338,0.453,1.997l0.124,0.484l0.969-0.249l-0.124-0.484c-0.165-0.64-0.312-1.288-0.44-1.941l-0.097-0.491
		l-0.981,0.193L520.69,170.612z M520.126,166.558c0.057,0.684,0.132,1.362,0.226,2.035l0.069,0.495l0.99-0.138l-0.069-0.496
		c-0.091-0.654-0.164-1.313-0.22-1.979l-0.041-0.499l-0.997,0.083L520.126,166.558z"/>
	<path fill="#9E9E9E" d="M555.486,199.986c0.337,0.009,0.676,0.014,1.014,0.014h0.5v-1h-0.5c-0.33,0-0.659-0.004-0.986-0.014
		l-0.5-0.014l-0.027,1L555.486,199.986z"/>
	<polygon fill="#444444" points="896.834,325.5 896.834,323.5 639.5,323.5 639.5,146.167 894.834,146.167 894.834,325.5 
		896.834,325.5 896.834,323.5 896.834,325.5 898.834,325.5 898.834,142.167 635.5,142.167 635.5,327.5 898.834,327.5 898.834,325.5 
			"/>
	<polygon fill="#444444" points="41.5,433.5 41.5,615.5 180.5,615.5 180.5,431.5 77.5,431.5 77.5,435.5 176.5,435.5 176.5,611.5 
		45.5,611.5 45.5,431.5 41.5,431.5 	"/>
	<polygon fill="#444444" points="81.5,361.5 81.5,255.5 302.5,255.5 302.5,431.5 81.5,431.5 81.5,395.5 77.5,395.5 77.5,435.5 
		306.5,435.5 306.5,251.5 77.5,251.5 77.5,363.5 81.5,363.5 	"/>
	<polygon fill="#444444" points="79.5,397.5 79.5,399.5 122.5,399.5 122.5,431.5 81.5,431.5 81.5,397.5 79.5,397.5 79.5,399.5 
		79.5,397.5 77.5,397.5 77.5,435.5 126.5,435.5 126.5,395.5 77.5,395.5 77.5,397.5 	"/>
	<polyline fill="#444444" points="41.5,206.5 41.5,435.5 45.5,435.5 45.5,206.5 	"/>
	<polyline fill="#444444" points="302.5,206.5 302.5,255.5 306.5,255.5 306.5,206.5 	"/>
	<polygon fill="#444444" points="79.25,210.583 306.5,210.583 306.5,26.5 41.5,26.5 41.5,210.5 45.5,210.5 45.5,30.5 302.5,30.5 
		302.5,206.583 77.25,206.583 77.25,210.583 	"/>
	<polyline fill="#AF6837" points="81.5,210.5 81.5,170.5 77.5,170.5 77.5,210.5 	"/>
	<polyline fill="#AF6837" points="81.5,471.5 81.5,431.5 77.5,431.5 77.5,471.5 	"/>
	<polyline fill="#AF6837" points="117.5,359.5 77.5,359.5 77.5,363.5 117.5,363.5 	"/>
	<polygon fill="#444444" points="473.5,433.5 473.5,611.5 342.5,611.5 342.5,435.5 441.5,435.5 441.5,431.5 338.5,431.5 
		338.5,615.5 477.5,615.5 477.5,431.5 473.5,431.5 	"/>
	<polygon fill="#444444" points="554.5,424.5 554.5,431.5 473.5,431.5 473.5,435.5 558.5,435.5 558.5,422.5 554.5,422.5 	"/>
	<polygon fill="#444444" points="554.5,199.5 554.5,206.5 455.5,206.5 455.5,255.5 554.5,255.5 554.5,390.5 558.5,390.5 
		558.5,251.5 459.5,251.5 459.5,210.5 558.5,210.5 558.5,197.5 554.5,197.5 	"/>
	<polygon fill="#444444" points="439.5,431.5 342.5,431.5 342.5,208.5 342.5,30.5 554.5,30.5 554.5,165.499 558.5,165.499 
		558.5,26.5 338.5,26.5 338.5,208.5 338.5,435.5 441.5,435.5 441.5,431.5 	"/>
	<polyline fill="#444444" points="599.5,26.5 599.5,435.5 603.5,435.5 603.5,26.5 	"/>
	<polyline fill="#444444" points="459.5,206.5 338.5,206.5 338.5,210.5 459.5,210.5 	"/>
	<polyline fill="#444444" points="78.5,207.5 78.5,254.5 80.5,254.5 80.5,207.5 	"/>
	<polyline fill="#444444" points="96.5,207.5 96.5,254.5 98.5,254.5 98.5,207.5 	"/>
	<polyline fill="#444444" points="114.5,207.5 114.5,254.5 116.5,254.5 116.5,207.5 	"/>
	<polyline fill="#444444" points="132.5,207.5 132.5,254.5 134.5,254.5 134.5,207.5 	"/>
	<polyline fill="#444444" points="150.5,207.5 150.5,254.5 152.5,254.5 152.5,207.5 	"/>
	<polyline fill="#444444" points="168.5,207.5 168.5,254.5 170.5,254.5 170.5,207.5 	"/>
	<polyline fill="#444444" points="186.5,207.5 186.5,254.5 188.5,254.5 188.5,207.5 	"/>
	<polyline fill="#444444" points="204.5,207.5 204.5,254.5 206.5,254.5 206.5,207.5 	"/>
	<polyline fill="#444444" points="474.5,207.5 474.5,254.5 476.5,254.5 476.5,207.5 	"/>
	<polyline fill="#444444" points="492.5,207.5 492.5,254.5 494.5,254.5 494.5,207.5 	"/>
	<polyline fill="#444444" points="510.5,207.5 510.5,254.5 512.5,254.5 512.5,207.5 	"/>
	<polyline fill="#444444" points="528.5,207.5 528.5,254.5 530.5,254.5 530.5,207.5 	"/>
	<polyline fill="#444444" points="546.5,207.5 546.5,254.5 548.5,254.5 548.5,207.5 	"/>
	<polyline fill="#AF6837" points="558.5,386.5 518.5,386.5 518.5,390.5 558.5,390.5 	"/>
	<polyline fill="#AF6837" points="558.5,161.5 518.5,161.5 518.5,165.5 558.5,165.5 	"/>
	<polyline fill="#AF6837" points="603.5,435.5 603.5,386.5 599.5,386.5 599.5,435.5 	"/>
	<polyline fill="#AF6837" points="561.843,66.5 561.843,26.5 557.843,26.5 557.843,66.5 	"/>
	<path fill="#9E9E9E" d="M553.643,424.948c0.66,0.024,1.331,0.04,2.013,0.047l0.499,0.006l0.011-1l-0.5-0.005
		c-0.672-0.008-1.334-0.023-1.985-0.048l-0.5-0.019l-0.037,0.999L553.643,424.948z M549.623,424.676
		c0.658,0.066,1.327,0.122,2.008,0.167l0.499,0.034l0.067-0.998l-0.499-0.033c-0.671-0.045-1.329-0.1-1.977-0.165l-0.497-0.049
		l-0.1,0.994L549.623,424.676z M545.625,424.127c0.652,0.116,1.317,0.221,1.994,0.313l0.496,0.068l0.135-0.991l-0.495-0.067
		c-0.665-0.091-1.316-0.193-1.955-0.307l-0.492-0.087l-0.175,0.984L545.625,424.127z M541.682,423.24
		c0.64,0.177,1.294,0.341,1.962,0.49l0.488,0.109l0.219-0.976l-0.488-0.109c-0.653-0.146-1.291-0.306-1.915-0.479l-0.481-0.133
		l-0.267,0.964L541.682,423.24z M537.843,421.945c0.617,0.25,1.251,0.484,1.901,0.703l0.475,0.159l0.318-0.947l-0.474-0.159
		c-0.632-0.213-1.247-0.44-1.846-0.683l-0.464-0.188l-0.375,0.927L537.843,421.945z M534.188,420.174
		c0.581,0.335,1.181,0.65,1.798,0.949l0.45,0.218l0.436-0.9l-0.45-0.218c-0.597-0.288-1.175-0.594-1.734-0.915l-0.434-0.25
		l-0.498,0.867L534.188,420.174z M530.829,417.88c0.525,0.424,1.071,0.829,1.636,1.214l0.413,0.281l0.563-0.826l-0.413-0.281
		c-0.543-0.37-1.066-0.759-1.571-1.166l-0.39-0.313l-0.627,0.778L530.829,417.88z M527.882,415.071
		c0.452,0.509,0.924,0.997,1.415,1.466l0.362,0.345l0.69-0.724l-0.362-0.345c-0.472-0.45-0.924-0.918-1.357-1.406l-0.332-0.374
		l-0.748,0.665L527.882,415.071z M525.436,411.819c0.366,0.578,0.752,1.136,1.157,1.675l0.301,0.4l0.799-0.602l-0.3-0.399
		c-0.39-0.518-0.76-1.054-1.113-1.609l-0.268-0.423l-0.844,0.536L525.436,411.819z M523.516,408.239
		c0.281,0.626,0.579,1.233,0.896,1.824l0.235,0.44l0.882-0.472l-0.236-0.44c-0.304-0.569-0.593-1.157-0.864-1.762l-0.205-0.456
		l-0.912,0.409L523.516,408.239z M522.09,404.444c0.203,0.655,0.421,1.295,0.654,1.918l0.176,0.469l0.937-0.352l-0.176-0.468
		c-0.227-0.604-0.438-1.226-0.636-1.863l-0.148-0.478l-0.955,0.296L522.09,404.444z M521.092,400.525
		c0.137,0.671,0.287,1.328,0.449,1.971l0.123,0.484l0.97-0.245l-0.123-0.485c-0.159-0.627-0.306-1.269-0.439-1.925l-0.1-0.49
		l-0.979,0.2L521.092,400.525z M520.452,396.539c0.082,0.679,0.175,1.345,0.279,1.999l0.079,0.493l0.987-0.157l-0.079-0.494
		c-0.103-0.641-0.193-1.294-0.274-1.961l-0.06-0.496l-0.993,0.12L520.452,396.539z M520.105,392.523
		c0.037,0.682,0.084,1.352,0.14,2.01l0.043,0.499l0.996-0.086l-0.042-0.498c-0.056-0.648-0.102-1.308-0.138-1.979l-0.027-0.499
		l-0.999,0.054L520.105,392.523z M520,388.5c0,0.681,0.009,1.352,0.025,2.012l0.013,0.5l1-0.025l-0.013-0.5
		c-0.017-0.652-0.025-1.314-0.025-1.986V388h-1V388.5z"/>
	<path fill="#9E9E9E" d="M683,271h-3v1h3V271z M682,269v3h1v-3H682z M682,265v3h1v-3H682z M682,261v3h1v-3H682z M682,257v3h1v-3H682
		z M682,253v3h1v-3H682z M682,249v3h1v-3H682z M682,245v3h1v-3H682z M682,241v3h1v-3H682z M682,237v3h1v-3H682z M682,233v3h1v-3H682
		z M682,229v3h1v-3H682z M681.5,227h0.5v1h1v-2h-2v1H681.5z M677,227h3v-1h-3V227z M673,227h3v-1h-3V227z M669,227h3v-1h-3V227z
		 M665,227h3v-1h-3V227z M661,227h3v-1h-3V227z M657,227h3v-1h-3V227z M653,227h3v-1h-3V227z M649,227h3v-1h-3V227z M647,227.5V227
		h1v-1h-2v2h1V227.5z M647,232v-3h-1v3H647z M647,236v-3h-1v3H647z M647,240v-3h-1v3H647z M647,244v-3h-1v3H647z M647,248v-3h-1v3
		H647z M647,252v-3h-1v3H647z M647,256v-3h-1v3H647z M647,260v-3h-1v3H647z M647,264v-3h-1v3H647z M647,268v-3h-1v3H647z M646.5,271
		L646.5,271v0.5h0.5V269h-1v3h1v-1H646.5z M651,271h-3v1h3V271z M655,271h-3v1h3V271z M659,271h-3v1h3V271z M663,271h-3v1h3V271z
		 M667,271h-3v1h3V271z M671,271h-3v1h3V271z M675,271h-3v1h3V271z M679,271h-3v1h3V271z"/>
	<rect x="340.5" y="289.5" fill="#444444" width="18" height="81"/>
	<polygon fill="#444444" points="358.5,370.5 358.5,368.5 342.5,368.5 342.5,291.5 356.5,291.5 356.5,370.5 358.5,370.5 
		358.5,368.5 358.5,370.5 360.5,370.5 360.5,287.5 338.5,287.5 338.5,372.5 360.5,372.5 360.5,370.5 	"/>
	<rect x="286.5" y="298.5" fill="#444444" width="18" height="81"/>
	<polygon fill="#444444" points="304.5,379.5 304.5,377.5 288.5,377.5 288.5,300.5 302.5,300.5 302.5,379.5 304.5,379.5 
		304.5,377.5 304.5,379.5 306.5,379.5 306.5,296.5 284.5,296.5 284.5,381.5 306.5,381.5 306.5,379.5 	"/>
	<rect x="340.5" y="73.5" fill="#444444" width="18" height="81"/>
	<polygon fill="#444444" points="358.5,154.5 358.5,152.5 342.5,152.5 342.5,75.5 356.5,75.5 356.5,154.5 358.5,154.5 358.5,152.5 
		358.5,154.5 360.5,154.5 360.5,71.5 338.5,71.5 338.5,156.5 360.5,156.5 360.5,154.5 	"/>
	<polyline fill="#444444" points="555.5,560.5 602.5,560.5 602.5,558.5 555.5,558.5 	"/>
	<polyline fill="#444444" points="555.5,542.5 602.5,542.5 602.5,540.5 555.5,540.5 	"/>
	<polyline fill="#444444" points="555.5,524.5 602.5,524.5 602.5,522.5 555.5,522.5 	"/>
	<polyline fill="#444444" points="555.5,506.5 602.5,506.5 602.5,504.5 555.5,504.5 	"/>
	<polyline fill="#444444" points="555.5,488.5 602.5,488.5 602.5,486.5 555.5,486.5 	"/>
	<polyline fill="#444444" points="555.5,470.5 602.5,470.5 602.5,468.5 555.5,468.5 	"/>
	<polyline fill="#444444" points="555.5,452.5 602.5,452.5 602.5,450.5 555.5,450.5 	"/>
	<polyline fill="#444444" points="555.5,432.5 555.5,578.5 557.5,578.5 557.5,432.5 	"/>
	<polyline fill="#444444" points="602.5,578.5 602.5,450.5 600.5,450.5 600.5,578.5 	"/>
	<polyline fill="#444444" points="555.5,578.5 602.5,578.5 602.5,576.5 555.5,576.5 	"/>
</g>
</svg>
